HIERARCHY
ROOT hip
{
	OFFSET 0.000000 0.000000 0.000000 
	CHANNELS 6 Xposition Yposition Zposition Xrotation Zrotation Yrotation
	JOINT abdomen
	{
		OFFSET 0.000000 3.402643 0.000000 
		CHANNELS 3 Xrotation Zrotation Yrotation
		JOINT chest
		{
			OFFSET 0.000000 8.438565 -0.680529 
			CHANNELS 3 Xrotation Zrotation Yrotation
			JOINT neck
			{
				OFFSET 0.000000 10.207942 -0.272212 
				CHANNELS 3 Xrotation Zrotation Yrotation
				JOINT head
				{
					OFFSET 0.000000 3.130431 0.000000 
					CHANNELS 3 Xrotation Zrotation Yrotation
					End Site
					{
						OFFSET 0.000000 3.130435 0.000000 
					}
				}
			}
			JOINT lCollar
			{
				OFFSET 3.470700 6.669187 -0.816635 
				CHANNELS 3 Yrotation Zrotation Xrotation
				JOINT lShldr
				{
					OFFSET 3.198488 0.000000 0.000000 
					CHANNELS 3 Zrotation Yrotation Xrotation
					JOINT lForeArm
					{
						OFFSET 10.139888 0.000000 0.000000 
						CHANNELS 3 Yrotation Zrotation Xrotation
						JOINT lHand
						{
							OFFSET 8.370511 0.000000 0.000000 
							CHANNELS 3 Zrotation Yrotation Xrotation
							End Site
							{
								OFFSET 4.083176 0.000000 0.000000 
							}
						}
					}
				}
			}
			JOINT rCollar
			{
				OFFSET -3.470700 6.669187 -0.816635 
				CHANNELS 3 Yrotation Zrotation Xrotation
				JOINT rShldr
				{
					OFFSET -3.198488 0.000000 0.000000 
					CHANNELS 3 Zrotation Yrotation Xrotation
					JOINT rForeArm
					{
						OFFSET -10.139888 0.000000 0.000000 
						CHANNELS 3 Yrotation Zrotation Xrotation
						JOINT rHand
						{
							OFFSET -8.370511 0.000000 0.000000 
							CHANNELS 3 Zrotation Yrotation Xrotation
							End Site
							{
								OFFSET -4.083176 0.000000 0.000000 
							}
						}
					}
				}
			}
		}
	}
	JOINT lThigh
	{
		OFFSET 5.308129 -1.633274 1.361059 
		CHANNELS 3 Xrotation Zrotation Yrotation
		JOINT lShin
		{
			OFFSET -2.041588 -20.007561 0.000000 
			CHANNELS 3 Xrotation Zrotation Yrotation
			JOINT lFoot
			{
				OFFSET 0.000000 -19.190928 -1.224953 
				CHANNELS 3 Xrotation Yrotation Zrotation
				End Site
				{
					OFFSET 0.000000 -2.449906 4.627600 
				}
			}
		}
	}
	JOINT rThigh
	{
		OFFSET -5.308129 -1.633274 1.361059 
		CHANNELS 3 Xrotation Zrotation Yrotation
		JOINT rShin
		{
			OFFSET 2.041588 -20.007561 0.000000 
			CHANNELS 3 Xrotation Zrotation Yrotation
			JOINT rFoot
			{
				OFFSET 0.000000 -19.190928 -1.224953 
				CHANNELS 3 Xrotation Yrotation Zrotation
				End Site
				{
					OFFSET 0.000000 -2.449906 4.627600 
				}
			}
		}
	}
}
MOTION
Frames: 20
Frame Time: 0.033333
0.036631 48.498787 0.036631 -0.389631 -0.141011 -26.092840 24.847549 5.698615 -15.177612 -0.029297 0.332031 0.156080 -8.546165 0.973873 -0.156191 17.175453 16.288000 41.464443 2.000000 -2.000000 0.000000 -18.742237 -45.581123 -17.047277 -46.034931 -0.600127 8.544656 -40.370598 -47.017395 -148.454544 -2.000000 2.000000 0.000000 134.875015 45.316067 78.934944 59.964081 0.532206 8.668611 15.687550 -55.729034 -42.026455 -28.814249 22.318968 14.868173 25.185997 -1.397477 -2.180579 7.585024 -7.143335 -10.326128 6.431530 -17.445709 -13.254086 25.981260 1.344200 2.181615 -23.495760 -16.578505 16.680431 
-0.003437 47.802586 -0.003437 -1.806004 -0.550284 -22.121523 25.915823 -0.213410 3.662631 -0.136764 1.474605 0.699607 -8.546165 0.973873 -0.156191 8.346463 10.478519 15.806096 2.000000 -2.000000 0.000000 -12.026397 -35.322639 -17.721371 -48.026249 -0.594676 8.556533 -33.803822 -16.879097 -107.611298 -2.000000 2.000000 0.000000 88.880257 31.144825 38.690037 83.000183 0.508492 8.907297 20.634441 -60.412472 -47.345509 -31.454557 21.776760 14.289784 28.111498 -1.280638 -2.345910 7.930716 -10.866030 -8.941873 5.142368 -17.034058 -13.206964 32.296913 1.080440 2.549175 -26.568451 -20.055107 15.778980 
-0.063539 47.542049 -0.063539 -3.251906 -0.763033 -15.035048 24.547901 -7.051887 25.107727 -0.312839 2.665976 1.313589 -8.546165 0.973873 -0.156191 4.080659 -1.421420 -13.893225 2.000000 -2.000000 0.000000 3.961684 -14.342544 -69.546143 -64.211105 -0.525708 8.719840 -7.485805 13.615429 -46.892956 -2.000000 2.000000 0.000000 71.083107 -12.613302 10.437181 101.188026 0.552233 9.091708 17.378605 -50.536343 -41.489468 -31.735901 19.255497 14.820910 25.919865 -1.372616 -2.223385 10.942592 -17.154270 -6.111145 7.747694 -14.583028 -14.397470 33.312695 1.041457 2.609416 -28.067926 -26.170702 14.134476 
0.036631 47.517048 0.036631 -3.896653 -0.771596 -11.138984 22.894815 -10.827056 37.964928 -0.450024 3.427629 1.945798 -8.546165 0.973873 -0.156191 5.563939 -9.586886 -31.038357 2.000000 -2.000000 0.000000 -13.097077 -3.954473 -111.177170 -78.920197 -0.509226 8.859778 20.574253 15.936664 5.820456 -2.000000 2.000000 0.000000 76.290787 -31.854206 -10.504070 83.526817 0.508269 8.916972 20.453152 -27.338499 -33.337337 -31.509531 17.535084 15.196390 24.110285 -1.426601 -2.100810 12.981815 -20.460430 -4.259569 9.303394 -13.122053 -15.096163 33.019531 1.051209 2.597276 -28.514864 -29.497169 13.335924 
0.402256 47.527050 0.402256 -3.486416 -0.772159 -12.384727 23.400578 -11.127110 38.596020 -0.528440 3.691250 2.622299 -8.536577 1.041500 -0.166169 5.733089 -11.666050 -30.440672 2.000000 -2.000000 0.000000 -8.047192 -9.893914 -116.280624 -70.989433 -0.517849 8.783773 22.690128 16.564865 6.524696 -2.000000 2.000000 0.000000 80.357292 -39.137535 -14.804816 83.943626 0.505449 8.926037 17.656715 -25.314444 -27.633783 -32.212605 17.779348 14.986277 25.294140 -1.391995 -2.175359 12.135113 -19.194296 -4.419331 8.579138 -13.989609 -14.701021 33.048824 1.051213 2.598762 -27.901134 -28.560417 14.061769 
0.863042 47.642315 0.863042 -2.695193 -0.724393 -15.014969 24.674908 -10.320822 35.194935 -0.597008 3.788857 3.349306 -8.487821 1.070609 -0.169603 4.859040 -12.143620 -24.001953 2.000000 -2.000000 0.000000 3.371377 -15.557472 -117.208038 -58.595257 -0.547746 8.654374 20.443134 19.074446 -1.899676 -2.000000 2.000000 0.000000 79.916069 -40.501144 -12.309326 81.978012 0.503409 8.899653 14.458930 -25.793608 -21.981216 -32.845196 18.353178 14.810476 26.702822 -1.339058 -2.266616 10.764502 -16.656122 -5.025264 7.449111 -15.398889 -14.063810 32.404316 1.080565 2.554662 -26.696840 -26.430275 15.270281 
1.403968 47.772453 1.403968 -1.698797 -0.569260 -18.508694 26.276339 -8.717915 29.325277 -0.655715 3.769286 4.087844 -8.448751 1.070718 -0.168872 3.414147 -11.410501 -14.063162 2.000000 -2.000000 0.000000 17.380386 -21.356430 -115.182220 -44.065968 -0.617441 8.530868 14.982380 21.728971 -15.535723 -2.000000 2.000000 0.000000 75.965240 -37.616951 -5.464274 77.800194 0.508748 8.851621 11.447063 -27.374287 -16.494432 -33.388741 19.150532 14.498806 28.101313 -1.299698 -2.340051 9.157167 -13.340134 -5.902158 6.063605 -17.011309 -13.363180 31.231836 1.129201 2.488468 -25.161846 -23.526955 16.622534 
1.919841 47.972851 1.919841 -0.575440 -0.365047 -22.496428 27.854162 -6.581076 22.213076 -0.685015 3.691143 4.809505 -8.409603 1.041844 -0.163857 1.965604 -9.731784 -2.382047 2.000000 -2.000000 0.000000 31.146111 -28.518255 -110.584312 -28.940117 -0.716821 8.412161 7.173200 23.051949 -32.096966 -2.000000 2.000000 0.000000 71.063698 -31.388868 2.602303 71.582840 0.507804 8.788465 8.854155 -28.968990 -11.193403 -33.787056 20.076265 14.187124 29.411661 -1.236765 -2.422025 7.573810 -9.539250 -6.905524 4.490843 -18.620512 -12.643932 29.726671 1.187893 2.406999 -23.503468 -20.115278 17.963062 
2.365607 48.158123 2.365607 0.460019 -0.121557 -26.602524 29.188114 -4.248971 14.977225 -0.665364 3.583743 5.495598 -8.399759 1.012888 -0.159401 0.899002 -7.618140 9.356876 2.000000 -2.000000 0.000000 42.322853 -37.373226 -104.569939 -14.815867 -0.839501 8.329882 -1.297720 22.371191 -48.696892 -2.000000 2.000000 0.000000 67.368523 -22.943953 9.563023 63.464432 0.523821 8.713102 6.527292 -29.564283 -5.958360 -34.067631 21.089123 13.868071 30.643091 -1.183132 -2.501202 6.083994 -5.626919 -7.964599 2.821254 -20.017899 -11.966926 28.133074 1.256413 2.312224 -21.968218 -16.489384 19.134949 
2.641077 48.253387 2.641077 1.368542 0.180544 -30.454523 30.219198 -2.182719 8.862046 -0.577240 3.486152 6.078245 -8.468054 0.983731 -0.156299 0.250424 -5.788926 19.346951 2.000000 -2.000000 0.000000 49.356960 -46.739502 -98.645142 -3.535076 -0.955562 8.291774 -8.561187 20.557243 -62.022728 -2.000000 2.000000 0.000000 65.469170 -14.394979 14.384303 53.999592 0.555455 8.610817 3.924668 -28.439684 -0.747238 -34.205883 22.184351 13.505974 31.874378 -1.134463 -2.571086 4.792648 -1.977680 -9.030449 1.083267 -21.092087 -11.391959 26.940306 1.295424 2.240124 -20.821110 -13.008856 20.023241 
2.731237 48.303394 2.731237 2.003666 0.433744 -33.841995 31.170374 -0.970359 5.208944 -0.342423 3.466735 6.561362 -8.624327 0.983328 -0.158985 -0.298992 -5.105001 25.606230 2.000000 -2.000000 0.000000 52.949448 -53.474804 -95.508865 2.621615 -1.013478 8.279272 -13.655425 20.039536 -68.702591 -2.000000 2.000000 0.000000 64.398613 -9.988138 16.725710 48.934151 0.582688 8.565186 1.471600 -27.901711 3.885723 -34.355309 23.349535 13.121337 33.339752 -1.071575 -2.657902 3.609812 1.088508 -10.143434 -0.919585 -21.886728 -10.780788 26.950239 1.299902 2.231893 -20.431402 -9.920881 20.604029 
2.641077 48.062988 2.641077 2.199353 0.521038 -37.274616 32.513618 -0.949847 4.780741 0.254388 3.525356 6.891213 -9.083435 1.002835 -0.160294 -1.216856 -6.044799 26.954210 2.000000 -2.000000 0.000000 51.745770 -54.912197 -94.446297 0.444615 -0.988760 8.279059 -17.040140 23.646200 -65.643387 -2.000000 2.000000 0.000000 62.357277 -14.673319 16.552038 58.840446 0.536199 8.668519 0.884161 -33.547184 7.922996 -34.858135 24.818665 12.484799 35.957123 -0.959149 -2.806619 2.190787 4.141306 -11.408984 -3.965335 -22.841303 -9.796623 29.208685 1.207458 2.375311 -21.069836 -6.703648 21.106520 
2.475794 47.727451 2.475794 2.101991 0.462124 -40.236656 33.865913 -1.507993 5.817900 1.027378 3.563882 6.958885 -9.659750 1.020426 -0.173646 -1.989849 -7.269485 25.574305 2.000000 -2.000000 0.000000 44.404755 -53.352028 -90.975052 -10.295341 -0.881577 8.315137 -19.881418 29.568081 -58.172146 -2.000000 2.000000 0.000000 60.623058 -21.322708 15.231722 69.088051 0.509724 8.770715 -0.364590 -38.334553 12.124242 -35.312080 26.161657 11.839299 38.671902 -0.822651 -2.938590 0.913338 6.717591 -12.636254 -7.040074 -23.694326 -8.769182 32.306934 1.083829 2.540874 -22.171034 -3.864910 21.472866 
2.270445 47.522049 2.270445 1.926318 0.383939 -41.441898 34.345718 -1.440005 5.549410 1.496802 3.416806 6.632621 -10.001481 0.980903 -0.172949 -1.877826 -6.666683 25.098801 2.000000 -2.000000 0.000000 31.072029 -52.412453 -80.348389 -21.032003 -0.783207 8.362504 -25.311817 33.032578 -56.853153 -2.000000 2.000000 0.000000 58.839451 -25.540808 15.745265 74.836365 0.506896 8.825564 -1.367938 -41.663441 14.488809 -35.278954 26.821495 11.554860 39.803928 -0.764353 -3.004448 0.417173 7.692437 -13.311829 -8.290549 -24.010399 -8.279916 34.045238 1.015510 2.648870 -22.932739 -2.722598 21.509745 
1.999988 47.597183 1.999988 1.691832 0.325531 -40.595623 33.712490 -0.293875 3.059057 1.515828 3.055573 5.930835 -9.981671 0.884784 -0.155691 -0.635142 -3.760001 27.002985 2.000000 -2.000000 0.000000 7.700237 -49.986454 -57.100822 -37.622089 -0.658577 8.471334 -35.782249 29.779127 -67.506996 -2.000000 2.000000 0.000000 57.632584 -27.884886 22.289892 94.903671 0.528976 9.028610 2.450200 -49.836739 7.855145 -34.703850 26.724962 11.756918 38.974339 -0.809472 -2.958897 0.745497 6.815788 -13.318708 -7.314043 -23.648441 -8.650434 33.820446 1.025300 2.640286 -23.192789 -3.484930 21.152212 
1.649385 47.742451 1.649385 1.447490 0.276987 -38.840466 32.557789 1.129583 -0.240269 1.358818 2.596927 5.052192 -9.825046 0.739420 -0.137944 1.396483 -0.048393 29.674030 2.000000 -2.000000 0.000000 -16.841316 -39.507133 -33.022274 -58.762802 -0.540471 8.662778 -46.639618 19.316532 -83.233078 -2.000000 2.000000 0.000000 58.600071 -20.943010 30.151306 108.467865 0.589734 9.154593 7.092526 -58.964634 -3.079518 -33.884796 26.306391 12.189516 37.314835 -0.881081 -2.870146 1.432385 5.076788 -13.050226 -5.409637 -22.981617 -9.336947 32.843212 1.059054 2.600221 -23.286734 -5.116209 20.592978 
1.308806 47.982853 1.308806 1.154273 0.189454 -36.568298 31.088993 2.610085 -4.005185 1.114022 2.089449 4.044858 -9.600133 0.595485 -0.110612 4.120439 3.933701 32.792290 2.000000 -2.000000 0.000000 -31.576433 -26.543327 -19.105148 -75.813904 -0.510183 8.839540 -53.896465 4.455306 -98.006416 -2.000000 2.000000 0.000000 64.051590 -5.708527 36.809334 113.439125 0.621003 9.201737 16.152914 -67.704987 -20.140659 -32.876122 25.668242 12.746462 35.078362 -0.998046 -2.754395 2.435163 2.873448 -12.621544 -3.018030 -22.063267 -10.140306 31.407902 1.119605 2.494938 -23.267742 -7.199422 19.905125 
0.973231 48.178253 0.973231 0.841511 0.101954 -33.963253 29.354599 4.036431 -8.102572 0.820610 1.542810 2.981335 -9.316687 0.441788 -0.082366 7.519612 7.918751 36.345787 2.000000 -2.000000 0.000000 -38.154182 -24.412983 -10.412874 -74.821068 -0.509547 8.820268 -57.332470 -14.439299 -113.258904 -2.000000 2.000000 0.000000 75.391449 13.429821 43.295277 109.619835 0.598612 9.168791 30.981966 -72.345795 -42.615780 -31.696121 24.849768 13.371454 32.352718 -1.114976 -2.609762 3.686260 0.381259 -12.083273 -0.244638 -20.936264 -11.099245 29.550529 1.197563 2.400148 -23.121912 -9.577057 19.113167 
0.632649 48.418655 0.632649 0.528760 0.063292 -31.239595 27.504679 5.309886 -12.399049 0.498121 0.986291 1.903273 -9.316687 0.441788 -0.082366 11.526048 11.605752 40.242329 2.000000 -2.000000 0.000000 -38.727219 -36.296600 -4.267631 -56.185589 -0.552633 8.640780 -54.086945 -35.586185 -132.031342 -2.000000 2.000000 0.000000 93.423576 30.283953 53.306992 97.745438 0.542960 9.053530 35.832375 -71.298157 -53.518978 -30.356707 23.910246 14.034839 29.284859 -1.241633 -2.406939 5.131112 -2.237276 -11.518555 2.663568 -19.633516 -12.021488 27.380014 1.285671 2.270364 -22.870071 -12.054448 18.278814 
0.046648 48.824326 0.046648 -0.008738 -0.014127 -26.523438 25.287659 8.347534 -19.713861 0.498121 0.986291 1.903273 -9.316687 0.441788 -0.082366 19.807169 16.865419 47.852581 2.000000 -2.000000 0.000000 -8.293935 -52.320702 -29.417501 -46.275909 -0.599773 8.546930 -37.537178 -54.121536 -161.565201 -2.000000 2.000000 0.000000 -31.649263 136.496765 -91.259361 54.419010 0.554422 8.622923 13.211381 -54.068428 -39.764896 -27.562605 22.043089 15.241084 23.248598 -1.456056 -2.051687 8.015350 -6.686378 -10.473127 7.702938 -17.116440 -13.601160 22.967258 1.441967 1.995397 -22.229977 -16.175598 16.776833 
